<?xml version="1.0" encoding="UTF-8"?>
<svg width="109px" height="100px" viewBox="0 0 109 100" version="1.1" xmlns="http://www.w3.org/2000/svg" xmlns:xlink="http://www.w3.org/1999/xlink">
    <!-- Generator: Sketch 46.1 (44463) - http://www.bohemiancoding.com/sketch -->
    <title>noun_984556_cc</title>
    <desc>Created with Sketch.</desc>
    <defs></defs>
    <g id="Page-1" stroke="none" stroke-width="1" fill="none" fill-rule="evenodd">
        <g id="Group-4-Copy-21" transform="translate(-213.000000, -77.000000)" fill-rule="nonzero" fill="#BABABA">
            <g id="Group-3">
                <g id="Group-2">
                    <g id="noun_984556_cc" transform="translate(213.000000, 77.000000)">
                        <g id="Group">
                            <path d="M26.8088889,82.5986883 C23.7791667,82.5986883 21.3115741,85.062963 21.3115741,88.0859347 C21.3115741,91.110108 23.7803704,93.5731812 26.8088889,93.5731812 C29.8386111,93.5731812 32.2965741,91.1089065 32.2965741,88.0859347 C32.2953704,85.0617615 29.8374074,82.5986883 26.8088889,82.5986883 Z" id="Shape"></path>
                            <path d="M108.333333,45.47597 C108.333333,39.7087743 103.63287,35.0181217 97.8478704,35.0181217 L73.1912037,35.1346671 L74.8186111,17.3092262 L74.8258333,17.1458223 C74.8258333,11.7402778 70.7585185,1.81229056 64.1116667,1.81229056 L57.5791667,1.81229056 L54.1883333,19.8131504 L38.7773148,43.6412809 C37.590463,45.3005511 36.6419444,46.7687831 35.8824074,48.1300816 C34.697963,47.4103836 33.3377778,47.0198964 31.9318519,47.0198964 L7.71694444,47.0198964 C3.46185185,47.0198964 0,50.4766093 0,54.7239087 L0,91.9631724 C0,96.2104718 3.46185185,99.6659832 7.71694444,99.6659832 L31.9318519,99.6659832 C34.397037,99.6659832 36.6780556,98.4536706 38.1068519,96.5300705 C40.2987963,98.1845348 42.9758333,99.1000772 45.7431481,99.1000772 L87.1373148,99.1000772 C92.9150926,99.1000772 97.6143519,94.4094246 97.6143519,88.6434303 C97.6143519,87.2821318 97.3543519,85.9628858 96.85,84.7313492 C101.327778,83.5418651 104.636759,79.4615741 104.636759,74.6219356 C104.636759,72.9302249 104.21787,71.2673501 103.434259,69.7798942 C106.432685,67.8851301 108.333333,64.560582 108.333333,60.9464727 C108.333333,57.9439264 107.059815,55.1636574 104.889537,53.2100198 C107.059815,51.2575838 108.333333,48.4773148 108.333333,45.47597 Z M31.9318519,96.0662919 L7.71694444,96.0662919 C5.44916667,96.0662919 3.6062963,94.2255952 3.6062963,91.9631724 L3.6062963,54.7239087 C3.6062963,52.4602844 5.45037037,50.6195877 7.71694444,50.6195877 L31.9318519,50.6195877 C32.9501852,50.6195877 33.9167593,51.0365079 34.6775,51.7441909 L35.7716667,93.3088514 C35.1914815,94.9392857 33.6507407,96.0662919 31.9318519,96.0662919 Z M100.910093,54.8188272 C103.264537,55.9999008 104.727037,58.3488316 104.727037,60.9476742 C104.727037,63.8084436 102.902222,66.3952712 100.185463,67.3853064 L97.7696296,68.2648038 L99.4223148,70.2316578 C100.459907,71.4667989 101.030463,73.0251433 101.030463,74.6207341 C101.030463,78.4030534 97.9477778,81.4788911 94.1597222,81.4788911 L90.1959259,81.4788911 L92.5142593,84.3973325 C93.4916667,85.626466 94.0080556,87.094698 94.0080556,88.6410273 C94.0080556,92.4221451 90.9253704,95.4991843 87.1373148,95.4991843 L45.7431481,95.4991843 C43.3610185,95.4991843 41.0751852,94.5343805 39.3671296,92.8510802 L38.2753704,51.3729277 C39.0493519,49.7292769 40.1423148,47.9270282 41.7588889,45.6646054 L57.602037,21.1720459 L60.5703704,5.41078042 L64.1116667,5.41078042 C67.8756481,5.41078042 71.1810185,12.6389991 71.219537,17.0665234 L69.2406481,38.7487765 L97.8562963,38.6166116 C101.645556,38.6166116 104.727037,41.6936508 104.727037,45.4747685 C104.727037,48.0736111 103.264537,50.4213404 100.910093,51.602414 L97.7034259,53.2100198 L100.910093,54.8188272 Z" id="Shape"></path>
                            <path d="M34.2357407,29.3073964 C25.6665741,30.1015873 23.8525926,31.9122465 23.0569444,40.4657187 C23.0136111,40.9367063 22.3275,40.9367063 22.2841667,40.4657187 C21.4885185,31.9122465 19.674537,30.1015873 11.1053704,29.3073964 C10.6335185,29.2641424 10.6335185,28.5792879 11.1053704,28.536034 C19.674537,27.741843 21.4885185,25.9311839 22.2841667,17.3777116 C22.3275,16.906724 23.0136111,16.906724 23.0569444,17.3777116 C23.8525926,25.9311839 25.6665741,27.741843 34.2357407,28.536034 C34.7063889,28.5792879 34.7063889,29.2629409 34.2357407,29.3073964 Z" id="Shape"></path>
                            <path d="M91.7583333,7.65878527 C86.4343519,8.15260141 85.3076852,9.27720459 84.812963,14.5914352 C84.7852778,14.8833995 84.3591667,14.8833995 84.3326852,14.5914352 C83.837963,9.27720459 82.7112963,8.15260141 77.3873148,7.65878527 C77.0948148,7.63115079 77.0948148,7.20582011 77.3873148,7.17938713 C82.7112963,6.68557099 83.837963,5.56096781 84.3326852,0.246737213 C84.3603704,-0.0452270723 84.7864815,-0.0452270723 84.812963,0.246737213 C85.3076852,5.56096781 86.4343519,6.68557099 91.7583333,7.17938713 C92.052037,7.2070216 92.052037,7.63235229 91.7583333,7.65878527 Z" id="Shape"></path>
                            <path d="M106.568704,27.2828704 C102.182407,27.6889771 101.253148,28.6165344 100.846296,32.9947972 C100.823426,33.235097 100.473148,33.235097 100.450278,32.9947972 C100.043426,28.6165344 99.1141667,27.6889771 94.7278704,27.2828704 C94.4871296,27.2600419 94.4871296,26.9104056 94.7278704,26.8875772 C99.1141667,26.4814705 100.043426,25.5539131 100.450278,21.1756504 C100.473148,20.9353505 100.823426,20.9353505 100.846296,21.1756504 C101.253148,25.5539131 102.182407,26.4814705 106.568704,26.8875772 C106.810648,26.9104056 106.810648,27.2612434 106.568704,27.2828704 Z" id="Shape"></path>
                            <path d="M49.0641667,10.5171517 C43.4139815,11.0410053 42.2187037,12.2340939 41.6938889,17.8739308 C41.665,18.1839175 41.2124074,18.1839175 41.1835185,17.8739308 C40.6587037,12.2340939 39.4634259,11.0410053 33.8132407,10.5171517 C33.5026852,10.4883157 33.5026852,10.036552 33.8132407,10.007716 C39.4634259,9.48386243 40.6587037,8.29077381 41.1835185,2.65093695 C41.2124074,2.34095018 41.665,2.34095018 41.6938889,2.65093695 C42.2187037,8.29077381 43.4139815,9.48386243 49.0641667,10.007716 C49.3747222,10.0377535 49.3747222,10.4883157 49.0641667,10.5171517 Z" id="Shape"></path>
                        </g>
                    </g>
                </g>
            </g>
        </g>
    </g>
</svg>